ffmpeg started on 2026-01-13 at 09:35:40
Report written to "D:\Convert\FFMetrics\reports\psnr_report-6.txt"
Log level: 32
Command line:
ffmpeg -hide_banner -nostdin -r 24000/1001 -i "F:\\Convert\\files\\[DC] Make Heroine ga Oosugiru - 07_Telegram_HEVC(102).mkv" -r 24000/1001 -i "F:\\Convert\\files\\[DC] Make Heroine ga Oosugiru - 07_Telegram.mp4" -lavfi "[0:v]settb=AVTB,setpts=PTS-STARTPTS,format=pix_fmts=yuv420p10le,fps=24000/1001,scale=1920:1080:flags=lanczos:param0=3:out_range=limited:out_color_matrix=bt709:out_chroma_loc=left,setsar=1/1,setdar=(1920/1080)*(1/1),colorspace=format=yuv420p10:range=tv:primaries=bt709:trc=bt709:space=bt709:fast=0[main];[1:v]settb=AVTB,setpts=PTS-STARTPTS,format=pix_fmts=yuv420p,fps=24000/1001,scale=1920:1080:flags=lanczos:param0=3:out_range=limited:out_color_matrix=bt709:out_chroma_loc=left,setsar=1.000,setdar=1.778,colorspace=format=yuv420p:range=tv:primaries=bt709:trc=bt709:space=bt709:fast=0[ref];[main][ref]psnr=eof_action=endall:stats_file='D\\:/Convert/FFMetrics/logs/psnr_logfile-6.txt'" -f null -
Input #0, matroska,webm, from 'F:\Convert\files\[DC] Make Heroine ga Oosugiru - 07_Telegram_HEVC(102).mkv':
  Metadata:
    COMPATIBLE_BRANDS: isomiso2avc1mp41
    MAJOR_BRAND     : isom
    MINOR_VERSION   : 512
    ENCODER         : Lavf61.7.100
  Duration: 00:24:06.79, start: -0.021000, bitrate: 1005 kb/s
  Stream #0:0: Video: hevc (Main 10), yuv420p10le(tv, bt709, progressive), 1920x1080 [SAR 1:1 DAR 16:9], 23.98 fps, 23.98 tbr, 1k tbn (default)
      Metadata:
        HANDLER_NAME    : VideoHandler
        VENDOR_ID       : [0][0][0][0]
        ENCODER         : Lavc61.19.100 libx265
        BPS             : 808066
        DURATION        : 00:24:06.569708333
        NUMBER_OF_FRAMES: 34683
        NUMBER_OF_BYTES : 146115538
        _STATISTICS_WRITING_APP: mkvpropedit v94.0 ('Initiate') 64-bit
        _STATISTICS_WRITING_DATE_UTC: 2026-01-12 11:40:25
        _STATISTICS_TAGS: BPS DURATION NUMBER_OF_FRAMES NUMBER_OF_BYTES
  Stream #0:1: Audio: aac (LC), 48000 Hz, stereo, fltp (default)
      Metadata:
        HANDLER_NAME    : SoundHandler
        VENDOR_ID       : [0][0][0][0]
        ENCODER         : Lavc61.19.100 aac
        BPS             : 193194
        DURATION        : 00:24:06.784000000
        NUMBER_OF_FRAMES: 67819
        NUMBER_OF_BYTES : 34938755
        _STATISTICS_WRITING_APP: mkvpropedit v94.0 ('Initiate') 64-bit
        _STATISTICS_WRITING_DATE_UTC: 2026-01-12 11:40:25
        _STATISTICS_TAGS: BPS DURATION NUMBER_OF_FRAMES NUMBER_OF_BYTES
Input #1, mov,mp4,m4a,3gp,3g2,mj2, from 'F:\Convert\files\[DC] Make Heroine ga Oosugiru - 07_Telegram.mp4':
  Metadata:
    major_brand     : isom
    minor_version   : 512
    compatible_brands: isomiso2avc1mp41
    encoder         : Lavf60.16.100
  Duration: 00:24:06.74, start: 0.000000, bitrate: 3764 kb/s
  Stream #1:0[0x1](und): Video: h264 (High) (avc1 / 0x31637661), yuv420p(tv, bt709, progressive), 1920x1080 [SAR 1:1 DAR 16:9], 3616 kb/s, 23.98 fps, 23.98 tbr, 24k tbn (default)
      Metadata:
        handler_name    : VideoHandler
        vendor_id       : [0][0][0][0]
        encoder         : Lavc60.31.102 h264_qsv
  Stream #1:1[0x2](und): Audio: aac (HE-AACv2) (mp4a / 0x6134706D), 48000 Hz, stereo, fltp, 144 kb/s (default)
      Metadata:
        handler_name    : SoundHandler
        vendor_id       : [0][0][0][0]
Stream mapping:
  Stream #0:0 (hevc) -> settb:default
  Stream #1:0 (h264) -> settb:default
  psnr:default -> Stream #0:0 (wrapped_avframe)
  Stream #0:1 -> #0:1 (aac (native) -> pcm_s16le (native))
Output #0, null, to 'pipe:':
  Metadata:
    COMPATIBLE_BRANDS: isomiso2avc1mp41
    MAJOR_BRAND     : isom
    MINOR_VERSION   : 512
    encoder         : Lavf61.7.100
  Stream #0:0: Video: wrapped_avframe, yuv420p10le(tv, bt709, progressive), 1920x1080 [SAR 1:1 DAR 16:9], q=2-31, 200 kb/s, 23.98 fps, 23.98 tbn
      Metadata:
        encoder         : Lavc61.19.100 wrapped_avframe
  Stream #0:1: Audio: pcm_s16le, 48000 Hz, stereo, s16, 1536 kb/s (default)
      Metadata:
        HANDLER_NAME    : SoundHandler
        VENDOR_ID       : [0][0][0][0]
        _STATISTICS_TAGS: BPS DURATION NUMBER_OF_FRAMES NUMBER_OF_BYTES
        BPS             : 193194
        DURATION        : 00:24:06.784000000
        NUMBER_OF_FRAMES: 67819
        NUMBER_OF_BYTES : 34938755
        _STATISTICS_WRITING_APP: mkvpropedit v94.0 ('Initiate') 64-bit
        _STATISTICS_WRITING_DATE_UTC: 2026-01-12 11:40:25
        encoder         : Lavc61.19.100 pcm_s16le
frame=  129 fps=0.0 q=-0.0 size=N/A time=00:00:05.38 bitrate=N/A speed=10.7x    frame=  326 fps=321 q=-0.0 size=N/A time=00:00:13.59 bitrate=N/A speed=13.4x    frame=  539 fps=349 q=-0.0 size=N/A time=00:00:22.48 bitrate=N/A speed=14.6x    frame=  741 fps=361 q=-0.0 size=N/A time=00:00:30.90 bitrate=N/A speed=  15x    frame=  918 fps=358 q=-0.0 size=N/A time=00:00:38.28 bitrate=N/A speed=14.9x    frame= 1071 fps=347 q=-0.0 size=N/A time=00:00:44.66 bitrate=N/A speed=14.5x    frame= 1238 fps=344 q=-0.0 size=N/A time=00:00:51.63 bitrate=N/A speed=14.3x    frame= 1399 fps=340 q=-0.0 size=N/A time=00:00:58.34 bitrate=N/A speed=14.2x    frame= 1546 fps=334 q=-0.0 size=N/A time=00:01:04.48 bitrate=N/A speed=13.9x    frame= 1708 fps=332 q=-0.0 size=N/A time=00:01:11.23 bitrate=N/A speed=13.8x    frame= 1882 fps=332 q=-0.0 size=N/A time=00:01:18.49 bitrate=N/A speed=13.9x    frame= 2046 fps=331 q=-0.0 size=N/A time=00:01:25.33 bitrate=N/A speed=13.8x    frame= 2160 fps=323 q=-0.0 size=N/A time=00:01:30.09 bitrate=N/A speed=13.5x    frame= 2320 fps=322 q=-0.0 size=N/A time=00:01:36.76 bitrate=N/A speed=13.4x    frame= 2460 fps=319 q=-0.0 size=N/A time=00:01:42.60 bitrate=N/A speed=13.3x    frame= 2599 fps=315 q=-0.0 size=N/A time=00:01:48.39 bitrate=N/A speed=13.1x    frame= 2778 fps=317 q=-0.0 size=N/A time=00:01:55.86 bitrate=N/A speed=13.2x    frame= 2947 fps=318 q=-0.0 size=N/A time=00:02:02.91 bitrate=N/A speed=13.3x    frame= 3155 fps=322 q=-0.0 size=N/A time=00:02:11.58 bitrate=N/A speed=13.4x    frame= 3357 fps=326 q=-0.0 size=N/A time=00:02:20.01 bitrate=N/A speed=13.6x    frame= 3556 fps=329 q=-0.0 size=N/A time=00:02:28.31 bitrate=N/A speed=13.7x    frame= 3758 fps=332 q=-0.0 size=N/A time=00:02:36.73 bitrate=N/A speed=13.8x    frame= 3961 fps=334 q=-0.0 size=N/A time=00:02:45.20 bitrate=N/A speed=13.9x    frame= 4165 fps=337 q=-0.0 size=N/A time=00:02:53.71 bitrate=N/A speed=  14x    frame= 4363 fps=339 q=-0.0 size=N/A time=00:03:01.97 bitrate=N/A speed=14.1x    frame= 4561 fps=341 q=-0.0 size=N/A time=00:03:10.23 bitrate=N/A speed=14.2x    frame= 4768 fps=343 q=-0.0 size=N/A time=00:03:18.86 bitrate=N/A speed=14.3x    frame= 4965 fps=344 q=-0.0 size=N/A time=00:03:27.08 bitrate=N/A speed=14.4x    frame= 5166 fps=346 q=-0.0 size=N/A time=00:03:35.46 bitrate=N/A speed=14.4x    frame= 5366 fps=347 q=-0.0 size=N/A time=00:03:43.80 bitrate=N/A speed=14.5x    frame= 5559 fps=348 q=-0.0 size=N/A time=00:03:51.85 bitrate=N/A speed=14.5x    frame= 5761 fps=349 q=-0.0 size=N/A time=00:04:00.28 bitrate=N/A speed=14.6x    frame= 5969 fps=351 q=-0.0 size=N/A time=00:04:08.95 bitrate=N/A speed=14.6x    frame= 6164 fps=352 q=-0.0 size=N/A time=00:04:17.09 bitrate=N/A speed=14.7x    frame= 6363 fps=353 q=-0.0 size=N/A time=00:04:25.39 bitrate=N/A speed=14.7x    frame= 6561 fps=354 q=-0.0 size=N/A time=00:04:33.64 bitrate=N/A speed=14.8x    frame= 6769 fps=355 q=-0.0 size=N/A time=00:04:42.32 bitrate=N/A speed=14.8x    frame= 6966 fps=356 q=-0.0 size=N/A time=00:04:50.54 bitrate=N/A speed=14.8x    frame= 7159 fps=356 q=-0.0 size=N/A time=00:04:58.58 bitrate=N/A speed=14.9x    frame= 7359 fps=357 q=-0.0 size=N/A time=00:05:06.93 bitrate=N/A speed=14.9x    frame= 7552 fps=357 q=-0.0 size=N/A time=00:05:14.98 bitrate=N/A speed=14.9x    frame= 7735 fps=357 q=-0.0 size=N/A time=00:05:22.61 bitrate=N/A speed=14.9x    frame= 7936 fps=358 q=-0.0 size=N/A time=00:05:30.99 bitrate=N/A speed=14.9x    frame= 8132 fps=358 q=-0.0 size=N/A time=00:05:39.17 bitrate=N/A speed=  15x    frame= 8325 fps=359 q=-0.0 size=N/A time=00:05:47.22 bitrate=N/A speed=  15x    frame= 8529 fps=360 q=-0.0 size=N/A time=00:05:55.73 bitrate=N/A speed=  15x    frame= 8720 fps=360 q=-0.0 size=N/A time=00:06:03.69 bitrate=N/A speed=  15x    frame= 8920 fps=361 q=-0.0 size=N/A time=00:06:12.03 bitrate=N/A speed=  15x    frame= 9119 fps=361 q=-0.0 size=N/A time=00:06:20.33 bitrate=N/A speed=15.1x    frame= 9324 fps=362 q=-0.0 size=N/A time=00:06:28.88 bitrate=N/A speed=15.1x    frame= 9524 fps=362 q=-0.0 size=N/A time=00:06:37.23 bitrate=N/A speed=15.1x    frame= 9723 fps=363 q=-0.0 size=N/A time=00:06:45.53 bitrate=N/A speed=15.1x    frame= 9926 fps=363 q=-0.0 size=N/A time=00:06:53.99 bitrate=N/A speed=15.1x    frame=10123 fps=364 q=-0.0 size=N/A time=00:07:02.21 bitrate=N/A speed=15.2x    frame=10315 fps=364 q=-0.0 size=N/A time=00:07:10.22 bitrate=N/A speed=15.2x    frame=10505 fps=364 q=-0.0 size=N/A time=00:07:18.14 bitrate=N/A speed=15.2x    frame=10705 fps=364 q=-0.0 size=N/A time=00:07:26.48 bitrate=N/A speed=15.2x    frame=10904 fps=365 q=-0.0 size=N/A time=00:07:34.78 bitrate=N/A speed=15.2x    frame=11099 fps=365 q=-0.0 size=N/A time=00:07:42.92 bitrate=N/A speed=15.2x    frame=11287 fps=365 q=-0.0 size=N/A time=00:07:50.76 bitrate=N/A speed=15.2x    frame=11483 fps=365 q=-0.0 size=N/A time=00:07:58.93 bitrate=N/A speed=15.2x    frame=11678 fps=365 q=-0.0 size=N/A time=00:08:07.06 bitrate=N/A speed=15.2x    frame=11877 fps=366 q=-0.0 size=N/A time=00:08:15.36 bitrate=N/A speed=15.3x    frame=12089 fps=366 q=-0.0 size=N/A time=00:08:24.21 bitrate=N/A speed=15.3x    frame=12285 fps=367 q=-0.0 size=N/A time=00:08:32.38 bitrate=N/A speed=15.3x    frame=12480 fps=367 q=-0.0 size=N/A time=00:08:40.52 bitrate=N/A speed=15.3x    frame=12675 fps=367 q=-0.0 size=N/A time=00:08:48.65 bitrate=N/A speed=15.3x    frame=12885 fps=368 q=-0.0 size=N/A time=00:08:57.41 bitrate=N/A speed=15.3x    frame=13078 fps=368 q=-0.0 size=N/A time=00:09:05.46 bitrate=N/A speed=15.3x    frame=13278 fps=368 q=-0.0 size=N/A time=00:09:13.80 bitrate=N/A speed=15.3x    frame=13459 fps=368 q=-0.0 size=N/A time=00:09:21.35 bitrate=N/A speed=15.3x    frame=13659 fps=368 q=-0.0 size=N/A time=00:09:29.69 bitrate=N/A speed=15.3x    frame=13865 fps=368 q=-0.0 size=N/A time=00:09:38.28 bitrate=N/A speed=15.4x    frame=14056 fps=368 q=-0.0 size=N/A time=00:09:46.25 bitrate=N/A speed=15.4x    frame=14237 fps=368 q=-0.0 size=N/A time=00:09:53.80 bitrate=N/A speed=15.4x    frame=14438 fps=368 q=-0.0 size=N/A time=00:10:02.18 bitrate=N/A speed=15.4x    frame=14624 fps=368 q=-0.0 size=N/A time=00:10:09.94 bitrate=N/A speed=15.4x    frame=14820 fps=369 q=-0.0 size=N/A time=00:10:18.11 bitrate=N/A speed=15.4x    frame=15014 fps=369 q=-0.0 size=N/A time=00:10:26.20 bitrate=N/A speed=15.4x    frame=15175 fps=368 q=-0.0 size=N/A time=00:10:32.92 bitrate=N/A speed=15.3x    frame=15366 fps=368 q=-0.0 size=N/A time=00:10:40.89 bitrate=N/A speed=15.3x    frame=15566 fps=368 q=-0.0 size=N/A time=00:10:49.23 bitrate=N/A speed=15.4x    frame=15762 fps=368 q=-0.0 size=N/A time=00:10:57.40 bitrate=N/A speed=15.4x    frame=15968 fps=369 q=-0.0 size=N/A time=00:11:05.99 bitrate=N/A speed=15.4x    frame=16164 fps=369 q=-0.0 size=N/A time=00:11:14.17 bitrate=N/A speed=15.4x    frame=16362 fps=369 q=-0.0 size=N/A time=00:11:22.43 bitrate=N/A speed=15.4x    frame=16559 fps=369 q=-0.0 size=N/A time=00:11:30.64 bitrate=N/A speed=15.4x    frame=16761 fps=369 q=-0.0 size=N/A time=00:11:39.07 bitrate=N/A speed=15.4x    frame=16956 fps=369 q=-0.0 size=N/A time=00:11:47.20 bitrate=N/A speed=15.4x    frame=17156 fps=370 q=-0.0 size=N/A time=00:11:55.54 bitrate=N/A speed=15.4x    frame=17361 fps=370 q=-0.0 size=N/A time=00:12:04.09 bitrate=N/A speed=15.4x    frame=17550 fps=370 q=-0.0 size=N/A time=00:12:11.98 bitrate=N/A speed=15.4x    frame=17746 fps=370 q=-0.0 size=N/A time=00:12:20.15 bitrate=N/A speed=15.4x    frame=17942 fps=370 q=-0.0 size=N/A time=00:12:28.33 bitrate=N/A speed=15.4x    frame=18144 fps=370 q=-0.0 size=N/A time=00:12:36.75 bitrate=N/A speed=15.4x    frame=18332 fps=370 q=-0.0 size=N/A time=00:12:44.59 bitrate=N/A speed=15.4x    frame=18529 fps=370 q=-0.0 size=N/A time=00:12:52.81 bitrate=N/A speed=15.4x    frame=18730 fps=371 q=-0.0 size=N/A time=00:13:01.19 bitrate=N/A speed=15.5x    frame=18929 fps=371 q=-0.0 size=N/A time=00:13:09.49 bitrate=N/A speed=15.5x    frame=19138 fps=371 q=-0.0 size=N/A time=00:13:18.21 bitrate=N/A speed=15.5x    frame=19345 fps=371 q=-0.0 size=N/A time=00:13:26.84 bitrate=N/A speed=15.5x    frame=19538 fps=371 q=-0.0 size=N/A time=00:13:34.89 bitrate=N/A speed=15.5x    frame=19736 fps=372 q=-0.0 size=N/A time=00:13:43.15 bitrate=N/A speed=15.5x    frame=19938 fps=372 q=-0.0 size=N/A time=00:13:51.58 bitrate=N/A speed=15.5x    frame=20147 fps=372 q=-0.0 size=N/A time=00:14:00.29 bitrate=N/A speed=15.5x    frame=20348 fps=372 q=-0.0 size=N/A time=00:14:08.68 bitrate=N/A speed=15.5x    frame=20530 fps=372 q=-0.0 size=N/A time=00:14:16.27 bitrate=N/A speed=15.5x    frame=20721 fps=372 q=-0.0 size=N/A time=00:14:24.23 bitrate=N/A speed=15.5x    frame=20924 fps=372 q=-0.0 size=N/A time=00:14:32.70 bitrate=N/A speed=15.5x    frame=21125 fps=372 q=-0.0 size=N/A time=00:14:41.08 bitrate=N/A speed=15.5x    frame=21321 fps=372 q=-0.0 size=N/A time=00:14:49.26 bitrate=N/A speed=15.5x    frame=21527 fps=373 q=-0.0 size=N/A time=00:14:57.85 bitrate=N/A speed=15.5x    frame=21712 fps=373 q=-0.0 size=N/A time=00:15:05.57 bitrate=N/A speed=15.5x    frame=21922 fps=373 q=-0.0 size=N/A time=00:15:14.33 bitrate=N/A speed=15.6x    frame=22126 fps=373 q=-0.0 size=N/A time=00:15:22.83 bitrate=N/A speed=15.6x    frame=22328 fps=373 q=-0.0 size=N/A time=00:15:31.26 bitrate=N/A speed=15.6x    frame=22524 fps=373 q=-0.0 size=N/A time=00:15:39.43 bitrate=N/A speed=15.6x    frame=22725 fps=373 q=-0.0 size=N/A time=00:15:47.82 bitrate=N/A speed=15.6x    frame=22917 fps=373 q=-0.0 size=N/A time=00:15:55.82 bitrate=N/A speed=15.6x    frame=23114 fps=374 q=-0.0 size=N/A time=00:16:04.04 bitrate=N/A speed=15.6x    frame=23314 fps=374 q=-0.0 size=N/A time=00:16:12.38 bitrate=N/A speed=15.6x    frame=23523 fps=374 q=-0.0 size=N/A time=00:16:21.10 bitrate=N/A speed=15.6x    frame=23722 fps=374 q=-0.0 size=N/A time=00:16:29.40 bitrate=N/A speed=15.6x    frame=23920 fps=374 q=-0.0 size=N/A time=00:16:37.66 bitrate=N/A speed=15.6x    frame=24123 fps=374 q=-0.0 size=N/A time=00:16:46.13 bitrate=N/A speed=15.6x    frame=24320 fps=374 q=-0.0 size=N/A time=00:16:54.34 bitrate=N/A speed=15.6x    frame=24519 fps=374 q=-0.0 size=N/A time=00:17:02.64 bitrate=N/A speed=15.6x    frame=24719 fps=375 q=-0.0 size=N/A time=00:17:10.98 bitrate=N/A speed=15.6x    frame=24924 fps=375 q=-0.0 size=N/A time=00:17:19.53 bitrate=N/A speed=15.6x    frame=25122 fps=375 q=-0.0 size=N/A time=00:17:27.79 bitrate=N/A speed=15.6x    frame=25316 fps=375 q=-0.0 size=N/A time=00:17:35.88 bitrate=N/A speed=15.6x    frame=25526 fps=375 q=-0.0 size=N/A time=00:17:44.64 bitrate=N/A speed=15.6x    frame=25728 fps=375 q=-0.0 size=N/A time=00:17:53.07 bitrate=N/A speed=15.6x    frame=25920 fps=375 q=-0.0 size=N/A time=00:18:01.08 bitrate=N/A speed=15.6x    frame=26119 fps=375 q=-0.0 size=N/A time=00:18:09.37 bitrate=N/A speed=15.6x    frame=26325 fps=375 q=-0.0 size=N/A time=00:18:17.97 bitrate=N/A speed=15.7x    frame=26522 fps=375 q=-0.0 size=N/A time=00:18:26.18 bitrate=N/A speed=15.7x    frame=26724 fps=376 q=-0.0 size=N/A time=00:18:34.61 bitrate=N/A speed=15.7x    frame=26912 fps=375 q=-0.0 size=N/A time=00:18:42.45 bitrate=N/A speed=15.7x    frame=27098 fps=375 q=-0.0 size=N/A time=00:18:50.21 bitrate=N/A speed=15.7x    frame=27280 fps=375 q=-0.0 size=N/A time=00:18:57.80 bitrate=N/A speed=15.6x    frame=27479 fps=375 q=-0.0 size=N/A time=00:19:06.10 bitrate=N/A speed=15.6x    frame=27665 fps=375 q=-0.0 size=N/A time=00:19:13.86 bitrate=N/A speed=15.6x    frame=27862 fps=375 q=-0.0 size=N/A time=00:19:22.07 bitrate=N/A speed=15.7x    frame=28048 fps=375 q=-0.0 size=N/A time=00:19:29.83 bitrate=N/A speed=15.6x    frame=28238 fps=375 q=-0.0 size=N/A time=00:19:37.75 bitrate=N/A speed=15.6x    frame=28431 fps=375 q=-0.0 size=N/A time=00:19:45.80 bitrate=N/A speed=15.6x    frame=28635 fps=375 q=-0.0 size=N/A time=00:19:54.31 bitrate=N/A speed=15.6x    frame=28810 fps=375 q=-0.0 size=N/A time=00:20:01.61 bitrate=N/A speed=15.6x    frame=28976 fps=375 q=-0.0 size=N/A time=00:20:08.54 bitrate=N/A speed=15.6x    frame=29154 fps=374 q=-0.0 size=N/A time=00:20:15.96 bitrate=N/A speed=15.6x    frame=29345 fps=374 q=-0.0 size=N/A time=00:20:23.93 bitrate=N/A speed=15.6x    frame=29514 fps=374 q=-0.0 size=N/A time=00:20:30.97 bitrate=N/A speed=15.6x    frame=29686 fps=374 q=-0.0 size=N/A time=00:20:38.15 bitrate=N/A speed=15.6x    frame=29865 fps=374 q=-0.0 size=N/A time=00:20:45.61 bitrate=N/A speed=15.6x    frame=30028 fps=373 q=-0.0 size=N/A time=00:20:52.41 bitrate=N/A speed=15.6x    frame=30218 fps=373 q=-0.0 size=N/A time=00:21:00.34 bitrate=N/A speed=15.6x    frame=30410 fps=373 q=-0.0 size=N/A time=00:21:08.35 bitrate=N/A speed=15.6x    frame=30606 fps=373 q=-0.0 size=N/A time=00:21:16.52 bitrate=N/A speed=15.6x    frame=30798 fps=373 q=-0.0 size=N/A time=00:21:24.53 bitrate=N/A speed=15.6x    frame=31007 fps=373 q=-0.0 size=N/A time=00:21:33.25 bitrate=N/A speed=15.6x    frame=31197 fps=373 q=-0.0 size=N/A time=00:21:41.17 bitrate=N/A speed=15.6x    frame=31386 fps=373 q=-0.0 size=N/A time=00:21:49.05 bitrate=N/A speed=15.6x    frame=31578 fps=373 q=-0.0 size=N/A time=00:21:57.06 bitrate=N/A speed=15.6x    frame=31771 fps=373 q=-0.0 size=N/A time=00:22:05.11 bitrate=N/A speed=15.6x    frame=31953 fps=373 q=-0.0 size=N/A time=00:22:12.70 bitrate=N/A speed=15.6x    frame=32142 fps=373 q=-0.0 size=N/A time=00:22:20.58 bitrate=N/A speed=15.6x    frame=32342 fps=373 q=-0.0 size=N/A time=00:22:28.93 bitrate=N/A speed=15.6x    frame=32539 fps=373 q=-0.0 size=N/A time=00:22:37.14 bitrate=N/A speed=15.6x    frame=32703 fps=373 q=-0.0 size=N/A time=00:22:43.98 bitrate=N/A speed=15.6x    frame=32853 fps=373 q=-0.0 size=N/A time=00:22:50.24 bitrate=N/A speed=15.5x    frame=33047 fps=373 q=-0.0 size=N/A time=00:22:58.33 bitrate=N/A speed=15.5x    frame=33232 fps=372 q=-0.0 size=N/A time=00:23:06.05 bitrate=N/A speed=15.5x    frame=33405 fps=372 q=-0.0 size=N/A time=00:23:13.26 bitrate=N/A speed=15.5x    frame=33563 fps=372 q=-0.0 size=N/A time=00:23:19.85 bitrate=N/A speed=15.5x    frame=33721 fps=372 q=-0.0 size=N/A time=00:23:26.44 bitrate=N/A speed=15.5x    frame=33842 fps=371 q=-0.0 size=N/A time=00:23:31.49 bitrate=N/A speed=15.5x    frame=33987 fps=370 q=-0.0 size=N/A time=00:23:37.54 bitrate=N/A speed=15.4x    frame=34150 fps=370 q=-0.0 size=N/A time=00:23:44.33 bitrate=N/A speed=15.4x    frame=34306 fps=370 q=-0.0 size=N/A time=00:23:50.84 bitrate=N/A speed=15.4x    frame=34434 fps=369 q=-0.0 size=N/A time=00:23:56.18 bitrate=N/A speed=15.4x    frame=34616 fps=369 q=-0.0 size=N/A time=00:24:03.77 bitrate=N/A speed=15.4x    [Parsed_psnr_16 @ 000002544ab23900] PSNR y:49.182465 u:50.563624 v:50.630597 average:49.604767 min:37.918138 max:inf
[out#0/null @ 000002543da58a00] video:14903KiB audio:271276KiB subtitle:0KiB other streams:0KiB global headers:0KiB muxing overhead: unknown
frame=34683 fps=369 q=-0.0 Lsize=N/A time=00:24:06.57 bitrate=N/A speed=15.4x    
